{
	"asset":{
		"generator":"Khronos glTF Blender I/O v4.0.44",
		"version":"2.0"
	},
	"extensionsUsed":[
		"KHR_materials_clearcoat",
		"KHR_materials_specular",
		"KHR_materials_ior",
		"KHR_materials_emissive_strength"
	],
	"scene":0,
	"scenes":[
		{
			"name":"Scene",
			"nodes":[
				0,
				1
			]
		}
	],
	"nodes":[
		{
			"mesh":0,
			"name":"platform"
		},
		{
			"name":"Area",
			"rotation":[
				-0.7071068286895752,
				0,
				0,
				0.7071068286895752
			],
			"translation":[
				0,
				1.6380001306533813,
				0
			]
		}
	],
	"materials":[
		{
			"doubleSided":true,
			"extensions":{
				"KHR_materials_clearcoat":{
					"clearcoatFactor":0.2136363685131073,
					"clearcoatRoughnessFactor":0.08181818574666977
				},
				"KHR_materials_specular":{
					"specularFactor":0,
					"specularColorFactor":[
						0.0,
						0.0,
						0.0
					]
				},
				"KHR_materials_ior":{
					"ior":1
				}
			},
			"name":"fourroner_metal",
			"pbrMetallicRoughness":{
				"baseColorFactor":[
					0.16267701983451843,
					0.16267701983451843,
					0.16267701983451843,
					1
				]
			}
		},
		{
			"doubleSided":true,
			"emissiveFactor":[
				0,
				0.4793338089731646,
				1
			],
			"extensions":{
				"KHR_materials_emissive_strength":{
					"emissiveStrength":7.999414921152777
				}
			},
			"name":"blue_light",
			"pbrMetallicRoughness":{
				"baseColorFactor":[
					0,
					0,
					0,
					1
				]
			}
		},
		{
			"doubleSided":true,
			"extensions":{
				"KHR_materials_clearcoat":{
					"clearcoatFactor":1,
					"clearcoatRoughnessFactor":0
				}
			},
			"name":"metal_mirror",
			"pbrMetallicRoughness":{
				"baseColorFactor":[
					0.800000011920929,
					0.800000011920929,
					0.800000011920929,
					1
				],
				"roughnessFactor":0
			}
		}
	],
	"meshes":[
		{
			"name":"Circle.002",
			"primitives":[
				{
					"attributes":{
						"POSITION":0,
						"NORMAL":1,
						"TEXCOORD_0":2
					},
					"indices":3,
					"material":0
				},
				{
					"attributes":{
						"POSITION":4,
						"NORMAL":5,
						"TEXCOORD_0":6
					},
					"indices":7,
					"material":1
				},
				{
					"attributes":{
						"POSITION":8,
						"NORMAL":9,
						"TEXCOORD_0":10
					},
					"indices":11,
					"material":2
				}
			]
		}
	],
	"accessors":[
		{
			"bufferView":0,
			"componentType":5126,
			"count":2258,
			"max":[
				1.7470148801803589,
				0.8133915662765503,
				1.7840689420700073
			],
			"min":[
				-1.7470148801803589,
				-0.08624173700809479,
				-1.806845784187317
			],
			"type":"VEC3"
		},
		{
			"bufferView":1,
			"componentType":5126,
			"count":2258,
			"type":"VEC3"
		},
		{
			"bufferView":2,
			"componentType":5126,
			"count":2258,
			"type":"VEC2"
		},
		{
			"bufferView":3,
			"componentType":5123,
			"count":4440,
			"type":"SCALAR"
		},
		{
			"bufferView":4,
			"componentType":5126,
			"count":5216,
			"max":[
				1.7443640232086182,
				0.3297598958015442,
				1.782421350479126
			],
			"min":[
				-1.7443640232086182,
				0.0040821051225066185,
				-1.8051981925964355
			],
			"type":"VEC3"
		},
		{
			"bufferView":5,
			"componentType":5126,
			"count":5216,
			"type":"VEC3"
		},
		{
			"bufferView":6,
			"componentType":5126,
			"count":5216,
			"type":"VEC2"
		},
		{
			"bufferView":7,
			"componentType":5123,
			"count":7824,
			"type":"SCALAR"
		},
		{
			"bufferView":8,
			"componentType":5126,
			"count":684,
			"max":[
				1.622636318206787,
				0.03612186759710312,
				1.6127108335494995
			],
			"min":[
				-1.622636318206787,
				-0.032953500747680664,
				-1.6127108335494995
			],
			"type":"VEC3"
		},
		{
			"bufferView":9,
			"componentType":5126,
			"count":684,
			"type":"VEC3"
		},
		{
			"bufferView":10,
			"componentType":5126,
			"count":684,
			"type":"VEC2"
		},
		{
			"bufferView":11,
			"componentType":5123,
			"count":1392,
			"type":"SCALAR"
		}
	],
	"bufferViews":[
		{
			"buffer":0,
			"byteLength":27096,
			"byteOffset":0,
			"target":34962
		},
		{
			"buffer":0,
			"byteLength":27096,
			"byteOffset":27096,
			"target":34962
		},
		{
			"buffer":0,
			"byteLength":18064,
			"byteOffset":54192,
			"target":34962
		},
		{
			"buffer":0,
			"byteLength":8880,
			"byteOffset":72256,
			"target":34963
		},
		{
			"buffer":0,
			"byteLength":62592,
			"byteOffset":81136,
			"target":34962
		},
		{
			"buffer":0,
			"byteLength":62592,
			"byteOffset":143728,
			"target":34962
		},
		{
			"buffer":0,
			"byteLength":41728,
			"byteOffset":206320,
			"target":34962
		},
		{
			"buffer":0,
			"byteLength":15648,
			"byteOffset":248048,
			"target":34963
		},
		{
			"buffer":0,
			"byteLength":8208,
			"byteOffset":263696,
			"target":34962
		},
		{
			"buffer":0,
			"byteLength":8208,
			"byteOffset":271904,
			"target":34962
		},
		{
			"buffer":0,
			"byteLength":5472,
			"byteOffset":280112,
			"target":34962
		},
		{
			"buffer":0,
			"byteLength":2784,
			"byteOffset":285584,
			"target":34963
		}
	],
	"buffers":[
		{
			"byteLength":288368,
			"uri":"platforms.bin"
		}
	]
}
