{
	"asset":{
		"generator":"Khronos glTF Blender I/O v4.0.44",
		"version":"2.0"
	},
	"extensionsUsed":[
		"KHR_materials_clearcoat",
		"KHR_materials_specular",
		"KHR_materials_ior",
		"KHR_materials_emissive_strength"
	],
	"scene":0,
	"scenes":[
		{
			"name":"Scene",
			"nodes":[
				0
			]
		}
	],
	"nodes":[
		{
			"mesh":0,
			"name":"platform2",
			"rotation":[
				0,
				-0.4617486596107483,
				0,
				0.887010931968689
			]
		}
	],
	"materials":[
		{
			"doubleSided":true,
			"extensions":{
				"KHR_materials_clearcoat":{
					"clearcoatFactor":0.2136363685131073,
					"clearcoatRoughnessFactor":0.08181818574666977
				},
				"KHR_materials_specular":{
					"specularFactor":0,
					"specularColorFactor":[
						0.0,
						0.0,
						0.0
					]
				},
				"KHR_materials_ior":{
					"ior":1
				}
			},
			"name":"fourroner_metal",
			"pbrMetallicRoughness":{
				"baseColorFactor":[
					0.16267701983451843,
					0.16267701983451843,
					0.16267701983451843,
					1
				]
			}
		},
		{
			"doubleSided":true,
			"emissiveFactor":[
				0,
				0.4793338089731646,
				1
			],
			"extensions":{
				"KHR_materials_emissive_strength":{
					"emissiveStrength":7.999414921152777
				}
			},
			"name":"blue_light",
			"pbrMetallicRoughness":{
				"baseColorFactor":[
					0,
					0,
					0,
					1
				]
			}
		},
		{
			"doubleSided":true,
			"extensions":{
				"KHR_materials_clearcoat":{
					"clearcoatFactor":1,
					"clearcoatRoughnessFactor":0
				}
			},
			"name":"metal_mirror",
			"pbrMetallicRoughness":{
				"baseColorFactor":[
					0.800000011920929,
					0.800000011920929,
					0.800000011920929,
					1
				],
				"roughnessFactor":0
			}
		}
	],
	"meshes":[
		{
			"name":"Circle.017",
			"primitives":[
				{
					"attributes":{
						"POSITION":0,
						"NORMAL":1,
						"TEXCOORD_0":2
					},
					"indices":3,
					"material":0
				},
				{
					"attributes":{
						"POSITION":4,
						"NORMAL":5,
						"TEXCOORD_0":6
					},
					"indices":7,
					"material":1
				},
				{
					"attributes":{
						"POSITION":8,
						"NORMAL":9,
						"TEXCOORD_0":10
					},
					"indices":11,
					"material":2
				}
			]
		}
	],
	"accessors":[
		{
			"bufferView":0,
			"componentType":5126,
			"count":2420,
			"max":[
				1.6789275407791138,
				0.8426332473754883,
				1.6991108655929565
			],
			"min":[
				-1.6789275407791138,
				-0.05700000375509262,
				-1.6991108655929565
			],
			"type":"VEC3"
		},
		{
			"bufferView":1,
			"componentType":5126,
			"count":2420,
			"type":"VEC3"
		},
		{
			"bufferView":2,
			"componentType":5126,
			"count":2420,
			"type":"VEC2"
		},
		{
			"bufferView":3,
			"componentType":5123,
			"count":4776,
			"type":"SCALAR"
		},
		{
			"bufferView":4,
			"componentType":5126,
			"count":5888,
			"max":[
				1.6762765645980835,
				0.813490629196167,
				1.6971639394760132
			],
			"min":[
				-1.6762765645980835,
				0.004147462546825409,
				-1.6971639394760132
			],
			"type":"VEC3"
		},
		{
			"bufferView":5,
			"componentType":5126,
			"count":5888,
			"type":"VEC3"
		},
		{
			"bufferView":6,
			"componentType":5126,
			"count":5888,
			"type":"VEC2"
		},
		{
			"bufferView":7,
			"componentType":5123,
			"count":8832,
			"type":"SCALAR"
		},
		{
			"bufferView":8,
			"componentType":5126,
			"count":944,
			"max":[
				1.564798355102539,
				0.04369409754872322,
				1.550260066986084
			],
			"min":[
				-1.5626614093780518,
				-2.732151187956333e-06,
				-1.5556261539459229
			],
			"type":"VEC3"
		},
		{
			"bufferView":9,
			"componentType":5126,
			"count":944,
			"type":"VEC3"
		},
		{
			"bufferView":10,
			"componentType":5126,
			"count":944,
			"type":"VEC2"
		},
		{
			"bufferView":11,
			"componentType":5123,
			"count":1608,
			"type":"SCALAR"
		}
	],
	"bufferViews":[
		{
			"buffer":0,
			"byteLength":29040,
			"byteOffset":0,
			"target":34962
		},
		{
			"buffer":0,
			"byteLength":29040,
			"byteOffset":29040,
			"target":34962
		},
		{
			"buffer":0,
			"byteLength":19360,
			"byteOffset":58080,
			"target":34962
		},
		{
			"buffer":0,
			"byteLength":9552,
			"byteOffset":77440,
			"target":34963
		},
		{
			"buffer":0,
			"byteLength":70656,
			"byteOffset":86992,
			"target":34962
		},
		{
			"buffer":0,
			"byteLength":70656,
			"byteOffset":157648,
			"target":34962
		},
		{
			"buffer":0,
			"byteLength":47104,
			"byteOffset":228304,
			"target":34962
		},
		{
			"buffer":0,
			"byteLength":17664,
			"byteOffset":275408,
			"target":34963
		},
		{
			"buffer":0,
			"byteLength":11328,
			"byteOffset":293072,
			"target":34962
		},
		{
			"buffer":0,
			"byteLength":11328,
			"byteOffset":304400,
			"target":34962
		},
		{
			"buffer":0,
			"byteLength":7552,
			"byteOffset":315728,
			"target":34962
		},
		{
			"buffer":0,
			"byteLength":3216,
			"byteOffset":323280,
			"target":34963
		}
	],
	"buffers":[
		{
			"byteLength":326496,
			"uri":"platforms.bin"
		}
	]
}
